<svg width="1832" height="344" viewBox="0 0 1832 344" fill="none" xmlns="http://www.w3.org/2000/svg">
<path d="M84.7317 93.2209C84.7317 106.924 94.7696 117.599 114.846 125.247L156.431 141.499C202.001 160.3 224.785 192.167 224.785 237.098C224.785 269.921 214.269 295.892 193.237 315.012C172.205 333.813 144.8 343.214 111.022 343.214C88.3963 343.214 69.2764 339.868 53.6618 333.176C38.3658 326.484 27.0532 317.402 19.7239 305.93C12.3946 294.458 7.29594 282.827 4.42795 271.036C1.87863 259.246 1.08197 246.658 2.03796 233.274H77.5617C76.9244 245.065 79.3143 254.944 84.7317 262.91C90.149 270.877 98.9123 274.86 111.022 274.86C120.263 274.86 127.752 272.311 133.487 267.212C139.542 262.114 142.569 254.944 142.569 245.702C142.569 237.098 139.701 230.088 133.965 224.67C128.23 219.253 119.466 214.314 107.676 209.852C82.1823 199.655 64.9744 192.326 56.0518 187.865C21.9546 170.338 4.90595 140.383 4.90595 98.0009C4.90595 69.0023 14.6253 45.4211 34.0638 27.2571C53.5024 9.0932 79.3143 0.0112274 111.5 0.0112274C148.465 0.0112274 175.233 9.41186 191.803 28.2131C208.693 47.0144 216.181 72.0296 214.269 103.259H140.657C140.976 92.7429 138.586 84.2983 133.487 77.9249C128.389 71.5516 121.219 68.365 111.978 68.365C103.374 68.365 96.6816 70.755 91.9016 75.5349C87.1217 79.9963 84.7317 85.8916 84.7317 93.2209ZM412.071 337H253.853V6.22521H410.637V80.7929H333.679V131.939H408.247V205.55H333.679V262.432H412.071V337ZM663.673 104.693C663.673 141.977 649.652 169.063 621.61 185.953L697.133 337H611.572L546.564 201.248H525.054V337H445.706V6.22521H559.47C593.886 6.22521 619.857 14.8292 637.383 32.0371C654.91 48.9264 663.673 73.145 663.673 104.693ZM552.778 75.057H525.054V136.241H552.778C561.7 136.241 568.711 133.532 573.81 128.115C578.908 122.379 581.458 114.731 581.458 105.171C581.458 95.9296 578.908 88.6003 573.81 83.1829C568.711 77.7656 561.7 75.057 552.778 75.057ZM785.029 337L664.095 6.22521H753.481L830.917 236.142L908.352 6.22521H993.436L871.547 337H785.029ZM1088.49 6.22521V337H1008.66V6.22521H1088.49ZM1356.2 243.79L1403.04 300.194C1372.77 328.874 1336.12 343.214 1293.1 343.214C1239.25 343.214 1196.39 327.121 1164.52 294.936C1132.97 262.432 1117.2 221.484 1117.2 172.091C1117.2 123.335 1133.29 82.5456 1165.48 49.7231C1197.66 16.5818 1239.73 0.0112274 1291.67 0.0112274C1336.28 0.0112274 1373.57 13.0765 1403.52 39.2071L1356.2 99.4349C1338.04 82.8643 1316.84 74.579 1292.63 74.579C1264.26 74.579 1241.8 83.8203 1225.23 102.303C1208.98 120.467 1200.85 143.57 1200.85 171.613C1200.85 199.337 1209.29 222.44 1226.18 240.922C1243.39 259.405 1265.7 268.646 1293.1 268.646C1316.05 268.646 1337.08 260.361 1356.2 243.79ZM1584.19 337H1425.98V6.22521H1582.76V80.7929H1505.8V131.939H1580.37V205.55H1505.8V262.432H1584.19V337ZM1691.44 93.2209C1691.44 106.924 1701.48 117.599 1721.55 125.247L1763.14 141.499C1808.71 160.3 1831.49 192.167 1831.49 237.098C1831.49 269.921 1820.98 295.892 1799.95 315.012C1778.91 333.813 1751.51 343.214 1717.73 343.214C1695.11 343.214 1675.99 339.868 1660.37 333.176C1645.07 326.484 1633.76 317.402 1626.43 305.93C1619.1 294.458 1614 282.827 1611.14 271.036C1608.59 259.246 1607.79 246.658 1608.75 233.274H1684.27C1683.63 245.065 1686.02 254.944 1691.44 262.91C1696.86 270.877 1705.62 274.86 1717.73 274.86C1726.97 274.86 1734.46 272.311 1740.2 267.212C1746.25 262.114 1749.28 254.944 1749.28 245.702C1749.28 237.098 1746.41 230.088 1740.67 224.67C1734.94 219.253 1726.18 214.314 1714.38 209.852C1688.89 199.655 1671.68 192.326 1662.76 187.865C1628.66 170.338 1611.61 140.383 1611.61 98.0009C1611.61 69.0023 1621.33 45.4211 1640.77 27.2571C1660.21 9.0932 1686.02 0.0112274 1718.21 0.0112274C1755.17 0.0112274 1781.94 9.41186 1798.51 28.2131C1815.4 47.0144 1822.89 72.0296 1820.98 103.259H1747.37C1747.68 92.7429 1745.29 84.2983 1740.2 77.9249C1735.1 71.5516 1727.93 68.365 1718.69 68.365C1710.08 68.365 1703.39 70.755 1698.61 75.5349C1693.83 79.9963 1691.44 85.8916 1691.44 93.2209Z" fill="#FDBFCA"/>
</svg>
