<svg width="20" height="18" viewBox="0 0 20 18" fill="none" xmlns="http://www.w3.org/2000/svg">
<path d="M10.0001 17L9.52868 17.4714C9.6537 17.5964 9.82327 17.6667 10.0001 17.6667C10.1769 17.6667 10.3465 17.5964 10.4715 17.4714L10.0001 17ZM2.04746 9.04738L1.57605 9.51878H1.57605L2.04746 9.04738ZM8.71413 2.38071L8.24272 2.85212V2.85212L8.71413 2.38071ZM10.0001 3.66667L9.52868 4.13807C9.78903 4.39842 10.2111 4.39842 10.4715 4.13807L10.0001 3.66667ZM11.286 2.38071L10.8146 1.90931V1.90931L11.286 2.38071ZM10.4715 16.5286L2.51886 8.57597L1.57605 9.51878L9.52868 17.4714L10.4715 16.5286ZM17.4813 8.57597L9.52868 16.5286L10.4715 17.4714L18.4241 9.51878L17.4813 8.57597ZM8.24272 2.85212L9.52868 4.13807L10.4715 3.19526L9.18553 1.90931L8.24272 2.85212ZM10.4715 4.13807L11.7574 2.85212L10.8146 1.90931L9.52868 3.19526L10.4715 4.13807ZM14.6194 0.333333C13.1923 0.333333 11.8237 0.900227 10.8146 1.90931L11.7574 2.85212C12.5165 2.09309 13.5459 1.66667 14.6194 1.66667V0.333333ZM18.6667 5.71405C18.6667 6.78748 18.2403 7.81694 17.4813 8.57597L18.4241 9.51878C19.4332 8.5097 20.0001 7.1411 20.0001 5.71405H18.6667ZM20.0001 5.71405C20.0001 2.74236 17.5911 0.333333 14.6194 0.333333V1.66667C16.8547 1.66667 18.6667 3.47874 18.6667 5.71405H20.0001ZM5.38079 1.66667C6.45422 1.66667 7.48369 2.09309 8.24272 2.85212L9.18553 1.90931C8.17645 0.900228 6.80785 0.333333 5.38079 0.333333V1.66667ZM1.33341 5.71405C1.33341 3.47874 3.14549 1.66667 5.38079 1.66667V0.333333C2.40911 0.333333 8.13603e-05 2.74236 8.13603e-05 5.71405H1.33341ZM2.51886 8.57597C1.75983 7.81694 1.33341 6.78748 1.33341 5.71405H8.13603e-05C8.13603e-05 7.1411 0.566974 8.5097 1.57605 9.51878L2.51886 8.57597Z" fill="#EF9BB5"/>
</svg>
