<svg width="60" height="60" viewBox="0 0 60 60" fill="none" xmlns="http://www.w3.org/2000/svg">
<path fill-rule="evenodd" clip-rule="evenodd" d="M0 30C0 13.4315 13.4315 0 30 0C46.5685 0 60 13.4315 60 30C60 46.5685 46.5685 60 30 60C13.4315 60 0 46.5685 0 30ZM24.9961 20.2702C25.6128 19.9123 26.3733 19.9098 26.9923 20.2635L40.9923 28.2635C41.6154 28.6196 42 29.2823 42 30C42 30.7177 41.6154 31.3804 40.9923 31.7365L26.9923 39.7365C26.3733 40.0902 25.6128 40.0877 24.9961 39.7298C24.3795 39.372 24 38.7129 24 38V22C24 21.2871 24.3795 20.628 24.9961 20.2702Z" fill="url(#paint0_linear_1584_1485)"/>
<defs>
<linearGradient id="paint0_linear_1584_1485" x1="30" y1="0" x2="30" y2="60" gradientUnits="userSpaceOnUse">
<stop stop-color="white"/>
<stop offset="1" stop-color="white" stop-opacity="0.1"/>
</linearGradient>
</defs>
</svg>
