<svg width="185" height="119" viewBox="0 0 185 119" fill="none" xmlns="http://www.w3.org/2000/svg">
<path d="M0.560001 119V-8.10623e-06H44.59C54.11 -8.10623e-06 61.9867 1.58666 68.22 4.75999C74.4533 7.93332 79.1 12.2967 82.16 17.85C85.22 23.4033 86.75 29.6367 86.75 36.55C86.75 43.1233 85.2767 49.1867 82.33 54.74C79.3833 60.18 74.7933 64.6 68.56 68C62.3267 71.2867 54.3367 72.93 44.59 72.93H22.32V119H0.560001ZM22.32 55.25H43.23C50.8233 55.25 56.2633 53.6067 59.55 50.32C62.95 46.92 64.65 42.33 64.65 36.55C64.65 30.6567 62.95 26.0667 59.55 22.78C56.2633 19.38 50.8233 17.68 43.23 17.68H22.32V55.25ZM95.3217 119L125.922 76.84L95.3217 34.68H118.612L140.032 64.6L161.282 34.68H184.742L153.972 76.84L184.742 119H161.282L140.032 89.08L118.612 119H95.3217Z" fill="#C4C4C4" fill-opacity="0.3"/>
</svg>
