<svg width="64" height="64" viewBox="0 0 64 64" fill="none" xmlns="http://www.w3.org/2000/svg">
<path d="M61.995 3.877L61.933 2.072L60.121 2.003C60.121 2.003 60.023 2 59.836 2C57.199 2 43.406 2.638 30.816 15.224C27.445 18.592 24.492 22.123 22.101 25.58C12.944 21.872 2 32.808 2 32.808C2 32.808 10.415 29.303 16.489 36.576C16.041 38.117 15.84 39.451 15.818 40.608L14.162 42.265C13.677 42.75 13.716 43.578 14.201 44.064L14.6 44.462L13.458 45.605C13.179 45.884 13.095 46.31 13.295 46.626C12.488 46.471 11.32 47.006 8.926 47.895C5.899 49.018 5.341 51.572 5.341 51.572C5.341 51.572 6.317 52.051 7.747 52.196C5.919 54.84 6.338 57.644 6.338 57.644C6.338 57.644 9.144 58.062 11.787 56.236C11.932 57.666 12.411 58.641 12.411 58.641C12.411 58.641 14.968 58.082 16.09 55.054C16.992 52.624 17.53 51.457 17.351 50.651C17.68 50.815 18.124 50.784 18.38 50.528L19.523 49.384L20.002 49.863C20.489 50.348 21.237 50.309 21.721 49.822L23.401 48.145C24.618 48.12 25.956 47.892 27.389 47.477C34.727 53.552 31.202 62 31.202 62C31.202 62 42.171 51.035 38.422 41.872C41.845 39.512 45.372 36.565 48.769 33.171C62.374 19.573 62.018 4.511 61.995 3.877ZM16.005 52.463C15.382 54.143 13.966 54.453 13.966 54.453C13.966 54.453 13.599 53.694 13.602 52.66C12.074 53.873 10.349 53.633 10.349 53.633C10.349 53.633 10.11 51.908 11.323 50.38C10.287 50.382 9.529 50.016 9.529 50.016C9.529 50.016 9.839 48.6 11.519 47.977C12.811 47.498 13.453 47.213 13.899 47.277L16.708 50.085C16.771 50.53 16.485 51.172 16.005 52.463ZM23.159 46.217C22.5673 46.2154 21.9781 46.1402 21.405 45.993L17.965 42.553C16.613 37.003 22.46 26.322 32.189 16.596C37.464 11.323 42.985 8.247 47.71 6.45L57.546 16.286C55.749 21.008 52.673 26.526 47.397 31.799C38.601 40.591 29.019 46.217 23.159 46.217Z" fill="#444444"/>
<path d="M42.2613 16.8799C40.9741 16.8799 39.7396 17.3912 38.8293 18.3014C37.9191 19.2116 37.4078 20.4462 37.4078 21.7334C37.4078 23.0206 37.9191 24.2551 38.8293 25.1653C39.7396 26.0755 40.9741 26.5869 42.2613 26.5869C43.5485 26.5866 44.7829 26.0753 45.6933 25.1653C46.6037 24.2553 47.1155 23.0211 47.1163 21.7339C47.1158 20.4465 46.604 19.212 45.6936 18.3018C44.7832 17.3916 43.5487 16.8801 42.2613 16.8799ZM42.2613 24.9679C41.8365 24.968 41.4158 24.8845 41.0232 24.722C40.6307 24.5596 40.274 24.3214 39.9735 24.0211C39.673 23.7208 39.4346 23.3642 39.2719 22.9718C39.1092 22.5794 39.0254 22.1587 39.0253 21.7339C39.0252 21.3091 39.1087 20.8884 39.2712 20.4958C39.4336 20.1033 39.6718 19.7466 39.9721 19.4461C40.2724 19.1456 40.6289 18.9072 41.0214 18.7445C41.4138 18.5818 41.8345 18.498 42.2593 18.4979C43.1173 18.4976 43.9402 18.8382 44.5471 19.4447C45.1539 20.0512 45.495 20.8739 45.4953 21.7319C45.4956 22.5899 45.155 23.4128 44.5485 24.0197C43.942 24.6265 43.1193 24.9676 42.2613 24.9679ZM32.5513 26.5849C31.264 26.5854 30.0296 27.097 29.1192 28.0071C28.2089 28.9173 27.6971 30.1516 27.6963 31.4389C27.7221 32.7092 28.2448 33.9188 29.1523 34.808C30.0598 35.6973 31.2797 36.1953 32.5503 36.1953C33.8209 36.1953 35.0408 35.6973 35.9483 34.808C36.8558 33.9188 37.3785 32.7092 37.4043 31.4389C37.404 30.1518 36.8927 28.9174 35.9826 28.0072C35.0726 27.097 33.8384 26.5854 32.5513 26.5849ZM32.5503 34.6729C32.1207 34.6804 31.694 34.6024 31.295 34.4432C30.8959 34.284 30.5326 34.047 30.2261 33.7459C29.9197 33.4448 29.6763 33.0857 29.5101 32.6895C29.344 32.2933 29.2584 31.868 29.2584 31.4384C29.2584 31.0088 29.344 30.5835 29.5101 30.1873C29.6763 29.7911 29.9197 29.432 30.2261 29.1309C30.5326 28.8298 30.8959 28.5927 31.295 28.4336C31.694 28.2744 32.1207 28.1963 32.5503 28.2039C32.9753 28.2036 33.3962 28.2871 33.789 28.4497C34.1817 28.6122 34.5385 28.8506 34.8391 29.1511C35.1396 29.4516 35.378 29.8085 35.5405 30.2012C35.703 30.5939 35.7866 31.0149 35.7863 31.4399C35.7864 31.8647 35.7028 32.2854 35.5402 32.6779C35.3776 33.0704 35.1392 33.427 34.8386 33.7273C34.538 34.0276 34.1812 34.2657 33.7886 34.4279C33.3959 34.5902 32.9751 34.6734 32.5503 34.6729Z" fill="#444444"/>
<path d="M46.9047 8.74691C47.3515 8.74691 47.7137 8.3847 47.7137 7.93791C47.7137 7.49111 47.3515 7.12891 46.9047 7.12891C46.4579 7.12891 46.0957 7.49111 46.0957 7.93791C46.0957 8.3847 46.4579 8.74691 46.9047 8.74691Z" fill="#444444"/>
<path d="M49.1947 11.033C49.641 11.033 50.0027 10.6712 50.0027 10.225C50.0027 9.77875 49.641 9.41699 49.1947 9.41699C48.7485 9.41699 48.3867 9.77875 48.3867 10.225C48.3867 10.6712 48.7485 11.033 49.1947 11.033Z" fill="#444444"/>
<path d="M51.4841 13.323C51.9314 13.323 52.2941 12.9604 52.2941 12.513C52.2941 12.0657 51.9314 11.703 51.4841 11.703C51.0367 11.703 50.6741 12.0657 50.6741 12.513C50.6741 12.9604 51.0367 13.323 51.4841 13.323Z" fill="#444444"/>
<path d="M53.7709 15.61C54.2183 15.61 54.5809 15.2473 54.5809 14.8C54.5809 14.3526 54.2183 13.99 53.7709 13.99C53.3236 13.99 52.9609 14.3526 52.9609 14.8C52.9609 15.2473 53.3236 15.61 53.7709 15.61Z" fill="#444444"/>
<path d="M56.6341 16.516C56.4819 16.3645 56.2758 16.2794 56.0611 16.2794C55.8463 16.2794 55.6402 16.3645 55.4881 16.516C55.4127 16.5911 55.3529 16.6803 55.3121 16.7786C55.2713 16.8768 55.2502 16.9821 55.2502 17.0885C55.2502 17.1949 55.2713 17.3002 55.3121 17.3985C55.3529 17.4967 55.4127 17.5859 55.4881 17.661C55.6405 17.8121 55.8464 17.8969 56.0611 17.8969C56.2757 17.8969 56.4816 17.8121 56.6341 17.661C56.7853 17.5089 56.8702 17.3031 56.8702 17.0885C56.8702 16.874 56.7853 16.6682 56.6341 16.516Z" fill="#444444"/>
</svg>
