<svg width="118" height="72" viewBox="0 0 118 72" fill="none" xmlns="http://www.w3.org/2000/svg">
<path d="M0.5 72V67.5H2.6C4 67.5 5.23333 67.3333 6.3 67C7.43333 66.6667 8.33333 66 9 65C9.66667 64 10 62.5 10 60.5V11.7C10 9.76666 9.63333 8.33333 8.9 7.4C8.23333 6.46666 7.33333 5.86666 6.2 5.6C5.13333 5.26666 3.93333 5.1 2.6 5.1H0.5V0.599995H29.3C37.9667 0.599995 44.3667 2.46666 48.5 6.19999C52.6333 9.93333 54.7 15.0667 54.7 21.6C54.7 24.6 54.2 27.4667 53.2 30.2C52.2667 32.8667 50.7 35.2667 48.5 37.4C46.3667 39.5333 43.5333 41.2333 40 42.5C36.4667 43.7 32.1667 44.3 27.1 44.3H21.6V61C21.6 62.8667 21.9333 64.2667 22.6 65.2C23.3333 66.1333 24.2667 66.7667 25.4 67.1C26.5333 67.3667 27.7333 67.5 29 67.5H33.1V72H0.5ZM26.1 39.3C28.9667 39.3 31.4333 39 33.5 38.4C35.5667 37.7333 37.2333 36.7333 38.5 35.4C39.7667 34 40.7 32.2 41.3 30C41.9 27.8 42.2 25.1333 42.2 22C42.2 18.2667 41.7333 15.2 40.8 12.8C39.8667 10.4 38.3333 8.63333 36.2 7.5C34.0667 6.3 31.2 5.7 27.6 5.7H21.6V39.3H26.1ZM59.0281 72V67.5H59.9281C61.5281 67.5 62.8948 67.3333 64.0281 67C65.1615 66.6 66.2281 65.9333 67.2281 65C68.2948 64.0667 69.4948 62.7667 70.8281 61.1L83.4281 45.1L70.8281 28.2C69.8948 27.0667 68.9281 26.1 67.9281 25.3C66.9948 24.5 66.0615 23.9 65.1281 23.5C64.1948 23.1 63.2281 22.9 62.2281 22.9H60.9281V18.4H87.9281V22.9H87.6281C85.3615 22.9 83.8281 23.2 83.0281 23.8C82.2948 24.3333 81.9281 25 81.9281 25.8C81.9281 26.4667 82.1281 27.1333 82.5281 27.8C82.9281 28.4667 83.4948 29.3333 84.2281 30.4L90.5281 38.8L95.6281 31.8C96.3615 30.6667 96.9615 29.6 97.4281 28.6C97.8948 27.6 98.1281 26.6667 98.1281 25.8C98.1281 24.6 97.6281 23.8333 96.6281 23.5C95.6281 23.1 94.3615 22.9 92.8281 22.9H92.5281V18.4H114.728V22.9H113.828C112.561 22.9 111.395 23.0667 110.328 23.4C109.328 23.6667 108.328 24.2667 107.328 25.2C106.328 26.1333 105.128 27.5 103.728 29.3L93.4281 42.7L108.128 62.2C109.128 63.4667 110.061 64.5 110.928 65.3C111.861 66.1 112.761 66.6667 113.628 67C114.495 67.3333 115.328 67.5 116.128 67.5H117.428V72H90.0281V67.5H90.5281C92.5281 67.5 94.0281 67.2333 95.0281 66.7C96.0281 66.1 96.5281 65.2667 96.5281 64.2C96.5281 63.4667 96.2615 62.6667 95.7281 61.8C95.2615 60.8667 94.2615 59.3667 92.7281 57.3L86.2281 48.9L79.2281 58.4C78.6281 59.2 78.0615 60.1333 77.5281 61.2C76.9948 62.2667 76.7281 63.3 76.7281 64.3C76.7281 65.3667 77.1948 66.1667 78.1281 66.7C79.1281 67.2333 80.7281 67.5 82.9281 67.5H83.2281V72H59.0281Z" fill="#C4C4C4" fill-opacity="0.3"/>
</svg>
