<svg width="50" height="50" viewBox="0 0 50 50" fill="none" xmlns="http://www.w3.org/2000/svg">
<path d="M48.4336 3.02891L48.3852 1.61875L46.9695 1.56484C46.9695 1.56484 46.893 1.5625 46.7469 1.5625C44.6867 1.5625 33.9109 2.06094 24.075 11.8938C21.4414 14.525 19.1344 17.2836 17.2664 19.9844C10.1125 17.0875 1.5625 25.6312 1.5625 25.6312C1.5625 25.6312 8.13672 22.893 12.882 28.575C12.532 29.7789 12.375 30.8211 12.3578 31.725L11.0641 33.0195C10.6852 33.3984 10.7156 34.0453 11.0945 34.425L11.4062 34.7359L10.5141 35.6289C10.2961 35.8469 10.2305 36.1797 10.3867 36.4266C9.75625 36.3055 8.84375 36.7234 6.97344 37.418C4.60859 38.2953 4.17266 40.2906 4.17266 40.2906C4.17266 40.2906 4.93516 40.6648 6.05234 40.7781C4.62422 42.8438 4.95156 45.0344 4.95156 45.0344C4.95156 45.0344 7.14375 45.3609 9.20859 43.9344C9.32187 45.0516 9.69609 45.8133 9.69609 45.8133C9.69609 45.8133 11.6938 45.3766 12.5703 43.0109C13.275 41.1125 13.6953 40.2008 13.5555 39.5711C13.8125 39.6992 14.1594 39.675 14.3594 39.475L15.2523 38.5812L15.6266 38.9555C16.007 39.3344 16.5914 39.3039 16.9695 38.9234L18.282 37.6133C19.2328 37.5938 20.2781 37.4156 21.3977 37.0914C27.1305 41.8375 24.3766 48.4375 24.3766 48.4375C24.3766 48.4375 32.9461 39.8711 30.0172 32.7125C32.6914 30.8688 35.4469 28.5664 38.1008 25.9148C48.7297 15.2914 48.4516 3.52422 48.4336 3.02891ZM12.5039 40.9867C12.0172 42.2992 10.9109 42.5414 10.9109 42.5414C10.9109 42.5414 10.6242 41.9484 10.6266 41.1406C9.43281 42.0883 8.08516 41.9008 8.08516 41.9008C8.08516 41.9008 7.89844 40.5531 8.84609 39.3594C8.03672 39.3609 7.44453 39.075 7.44453 39.075C7.44453 39.075 7.68672 37.9688 8.99922 37.482C10.0086 37.1078 10.5102 36.8852 10.8586 36.9352L13.0531 39.1289C13.1023 39.4766 12.8789 39.9781 12.5039 40.9867ZM18.093 36.107C17.6307 36.1058 17.1704 36.047 16.7227 35.932L14.0352 33.2445C12.9789 28.9086 17.5469 20.5641 25.1477 12.9656C29.2687 8.84609 33.582 6.44297 37.2734 5.03906L44.9578 12.7234C43.5539 16.4125 41.1508 20.7234 37.0289 24.843C30.157 31.7117 22.6711 36.107 18.093 36.107Z" fill="black"/>
<path d="M33.0166 13.1875C32.011 13.1875 31.0465 13.587 30.3354 14.2981C29.6243 15.0092 29.2248 15.9737 29.2248 16.9793C29.2248 17.9849 29.6243 18.9494 30.3354 19.6605C31.0465 20.3716 32.011 20.7711 33.0166 20.7711C34.0222 20.7709 34.9866 20.3714 35.6979 19.6605C36.4091 18.9495 36.8089 17.9853 36.8096 16.9797C36.8092 15.9739 36.4094 15.0095 35.6981 14.2984C34.9869 13.5873 34.0224 13.1877 33.0166 13.1875ZM33.0166 19.5063C32.6847 19.5064 32.356 19.4411 32.0494 19.3142C31.7427 19.1873 31.464 19.0012 31.2293 18.7666C30.9945 18.5319 30.8083 18.2534 30.6812 17.9468C30.5541 17.6402 30.4886 17.3116 30.4885 16.9797C30.4884 16.6478 30.5536 16.3191 30.6806 16.0125C30.8075 15.7058 30.9936 15.4271 31.2282 15.1924C31.4628 14.9576 31.7413 14.7714 32.0479 14.6442C32.3545 14.5171 32.6831 14.4517 33.015 14.4516C33.6853 14.4514 34.3283 14.7174 34.8024 15.1913C35.2765 15.6651 35.543 16.3078 35.5432 16.9781C35.5434 17.6484 35.2773 18.2913 34.8035 18.7655C34.3297 19.2396 33.6869 19.506 33.0166 19.5063ZM25.4307 20.7695C24.425 20.7699 23.4606 21.1696 22.7494 21.8806C22.0382 22.5917 21.6383 23.556 21.6377 24.5617C21.6578 25.5541 22.0662 26.4991 22.7752 27.1939C23.4842 27.8886 24.4373 28.2777 25.4299 28.2777C26.4225 28.2777 27.3756 27.8886 28.0846 27.1939C28.7935 26.4991 29.2019 25.5541 29.2221 24.5617C29.2219 23.5562 28.8224 22.5918 28.1114 21.8807C27.4005 21.1696 26.4362 20.7699 25.4307 20.7695ZM25.4299 27.0883C25.0943 27.0942 24.7609 27.0332 24.4492 26.9088C24.1374 26.7845 23.8535 26.5993 23.6141 26.3641C23.3747 26.1288 23.1846 25.8483 23.0548 25.5388C22.925 25.2292 22.8581 24.897 22.8581 24.5613C22.8581 24.2257 22.925 23.8934 23.0548 23.5839C23.1846 23.2744 23.3747 22.9938 23.6141 22.7586C23.8535 22.5234 24.1374 22.3382 24.4492 22.2138C24.7609 22.0895 25.0943 22.0285 25.4299 22.0344C25.7619 22.0342 26.0908 22.0994 26.3976 22.2264C26.7044 22.3534 26.9832 22.5396 27.218 22.7744C27.4528 23.0092 27.639 23.288 27.766 23.5948C27.893 23.9016 27.9582 24.2304 27.958 24.5625C27.9581 24.8944 27.8928 25.2231 27.7657 25.5297C27.6387 25.8364 27.4524 26.115 27.2176 26.3496C26.9828 26.5841 26.7041 26.7701 26.3973 26.8969C26.0905 27.0237 25.7618 27.0887 25.4299 27.0883Z" fill="black"/>
<path d="M36.6442 6.8334C36.9933 6.8334 37.2763 6.55043 37.2763 6.20137C37.2763 5.85231 36.9933 5.56934 36.6442 5.56934C36.2952 5.56934 36.0122 5.85231 36.0122 6.20137C36.0122 6.55043 36.2952 6.8334 36.6442 6.8334Z" fill="black"/>
<path d="M38.4335 8.61943C38.7821 8.61943 39.0647 8.33681 39.0647 7.98818C39.0647 7.63955 38.7821 7.35693 38.4335 7.35693C38.0849 7.35693 37.8022 7.63955 37.8022 7.98818C37.8022 8.33681 38.0849 8.61943 38.4335 8.61943Z" fill="black"/>
<path d="M40.2217 10.4087C40.5712 10.4087 40.8545 10.1254 40.8545 9.77588C40.8545 9.42639 40.5712 9.14307 40.2217 9.14307C39.8722 9.14307 39.5889 9.42639 39.5889 9.77588C39.5889 10.1254 39.8722 10.4087 40.2217 10.4087Z" fill="black"/>
<path d="M42.0088 12.1953C42.3583 12.1953 42.6416 11.912 42.6416 11.5625C42.6416 11.213 42.3583 10.9297 42.0088 10.9297C41.6593 10.9297 41.376 11.213 41.376 11.5625C41.376 11.912 41.6593 12.1953 42.0088 12.1953Z" fill="black"/>
<path d="M44.2452 12.9032C44.1263 12.7847 43.9653 12.7183 43.7975 12.7183C43.6297 12.7183 43.4687 12.7847 43.3499 12.9032C43.291 12.9618 43.2442 13.0315 43.2124 13.1083C43.1805 13.185 43.1641 13.2673 43.1641 13.3504C43.1641 13.4335 43.1805 13.5158 43.2124 13.5926C43.2442 13.6693 43.291 13.739 43.3499 13.7977C43.4689 13.9157 43.6298 13.9819 43.7975 13.9819C43.9652 13.9819 44.1261 13.9157 44.2452 13.7977C44.3633 13.6788 44.4297 13.518 44.4297 13.3504C44.4297 13.1828 44.3633 13.022 44.2452 12.9032Z" fill="black"/>
</svg>
