<svg width="100" height="100" viewBox="0 0 100 100" fill="none" xmlns="http://www.w3.org/2000/svg">
<circle cx="50" cy="50" r="50" fill="white"/>
<path d="M19.5785 56V45.5H24.3485C25.4885 45.5 26.4935 45.72 27.3635 46.16C28.2335 46.59 28.9135 47.195 29.4035 47.975C29.8935 48.755 30.1385 49.68 30.1385 50.75C30.1385 51.81 29.8935 52.735 29.4035 53.525C28.9135 54.305 28.2335 54.915 27.3635 55.355C26.4935 55.785 25.4885 56 24.3485 56H19.5785ZM22.0085 54.005H24.2285C24.9285 54.005 25.5335 53.875 26.0435 53.615C26.5635 53.345 26.9635 52.965 27.2435 52.475C27.5335 51.985 27.6785 51.41 27.6785 50.75C27.6785 50.08 27.5335 49.505 27.2435 49.025C26.9635 48.535 26.5635 48.16 26.0435 47.9C25.5335 47.63 24.9285 47.495 24.2285 47.495H22.0085V54.005ZM31.9711 56V45.5H36.5161C37.4561 45.5 38.2661 45.655 38.9461 45.965C39.6261 46.265 40.1511 46.7 40.5211 47.27C40.8911 47.84 41.0761 48.52 41.0761 49.31C41.0761 50.09 40.8911 50.765 40.5211 51.335C40.1511 51.895 39.6261 52.325 38.9461 52.625C38.2661 52.925 37.4561 53.075 36.5161 53.075H33.3211L34.4011 52.01V56H31.9711ZM38.6461 56L36.0211 52.19H38.6161L41.2711 56H38.6461ZM34.4011 52.28L33.3211 51.14H36.3811C37.1311 51.14 37.6911 50.98 38.0611 50.66C38.4311 50.33 38.6161 49.88 38.6161 49.31C38.6161 48.73 38.4311 48.28 38.0611 47.96C37.6911 47.64 37.1311 47.48 36.3811 47.48H33.3211L34.4011 46.325V52.28ZM41.6213 56L46.3013 45.5H48.7013L53.3963 56H50.8463L47.0063 46.73H47.9663L44.1113 56H41.6213ZM43.9613 53.75L44.6063 51.905H50.0063L50.6663 53.75H43.9613ZM59.4092 56.18C58.5792 56.18 57.8142 56.05 57.1142 55.79C56.4242 55.52 55.8192 55.14 55.2992 54.65C54.7892 54.16 54.3892 53.585 54.0992 52.925C53.8192 52.265 53.6792 51.54 53.6792 50.75C53.6792 49.96 53.8192 49.235 54.0992 48.575C54.3892 47.915 54.7942 47.34 55.3142 46.85C55.8342 46.36 56.4442 45.985 57.1442 45.725C57.8442 45.455 58.6142 45.32 59.4542 45.32C60.3842 45.32 61.2192 45.475 61.9592 45.785C62.7092 46.095 63.3392 46.545 63.8492 47.135L62.2892 48.575C61.9092 48.175 61.4942 47.88 61.0442 47.69C60.5942 47.49 60.1042 47.39 59.5742 47.39C59.0642 47.39 58.5992 47.47 58.1792 47.63C57.7592 47.79 57.3942 48.02 57.0842 48.32C56.7842 48.62 56.5492 48.975 56.3792 49.385C56.2192 49.795 56.1392 50.25 56.1392 50.75C56.1392 51.24 56.2192 51.69 56.3792 52.1C56.5492 52.51 56.7842 52.87 57.0842 53.18C57.3942 53.48 57.7542 53.71 58.1642 53.87C58.5842 54.03 59.0442 54.11 59.5442 54.11C60.0242 54.11 60.4892 54.035 60.9392 53.885C61.3992 53.725 61.8442 53.46 62.2742 53.09L63.6542 54.845C63.0842 55.275 62.4192 55.605 61.6592 55.835C60.9092 56.065 60.1592 56.18 59.4092 56.18ZM61.4342 54.53V50.585H63.6542V54.845L61.4342 54.53Z" fill="#444444"/>
<path d="M75.1008 54.6998L79.3008 50.4998L75.1008 46.2998" stroke="#444444" stroke-width="1.4" stroke-linecap="square"/>
</svg>
