<svg width="20" height="20" viewBox="0 0 20 20" fill="none" xmlns="http://www.w3.org/2000/svg">
<path fill-rule="evenodd" clip-rule="evenodd" d="M7.92541 0.666748L7.81075 1.24902L7.37209 3.37964C6.67076 3.64746 6.03475 4.02725 5.46008 4.47762L3.31608 3.76074L2.74009 3.58219L2.44143 4.09652L0.965413 6.56421L0.666748 7.07861L1.10409 7.46102L2.76276 8.87207C2.70276 9.24116 2.62543 9.60623 2.62543 9.99398C2.62543 10.3817 2.70276 10.7469 2.76276 11.116L1.10409 12.527L0.666748 12.9094L0.965413 13.4237L2.44143 15.8915L2.74009 16.4071L3.31608 16.2273L5.46008 15.5104C6.03475 15.9608 6.67076 16.3405 7.37209 16.6083L7.81075 18.7389L7.92541 19.3213H12.0734L12.1894 18.7389L12.6267 16.6083C13.3281 16.3405 13.9641 15.9608 14.5388 15.5104L16.6828 16.2273L17.2587 16.4071L17.5588 15.8915L19.0334 13.4237L19.3334 12.9094L18.8948 12.527L17.2361 11.116C17.2974 10.7469 17.3734 10.3817 17.3734 9.99398C17.3734 9.60623 17.2974 9.24116 17.2361 8.87207L18.8948 7.46102L19.3334 7.07861L19.0334 6.56421L17.5588 4.09652L17.2587 3.58219L16.6828 3.76074L14.5388 4.47762C13.9641 4.02725 13.3281 3.64746 12.6267 3.37964L12.1894 1.24902L12.0734 0.666748H7.92541Z" stroke="#EF9BB5" stroke-width="1.33333" stroke-linecap="square" stroke-linejoin="round"/>
<path fill-rule="evenodd" clip-rule="evenodd" d="M12.6663 9.99398C12.6663 11.465 11.4716 12.6589 9.99959 12.6589C8.52759 12.6589 7.33293 11.465 7.33293 9.99398C7.33293 8.52294 8.52759 7.3291 9.99959 7.3291C11.4716 7.3291 12.6663 8.52294 12.6663 9.99398Z" stroke="#EF9BB5" stroke-width="1.33333" stroke-linecap="square" stroke-linejoin="round"/>
</svg>
