<svg width="42" height="30" viewBox="0 0 42 30" fill="none" xmlns="http://www.w3.org/2000/svg">
<path d="M18.9 0.799997L13.4 11.7C17.6 13.2333 19.7 16.1333 19.7 20.4C19.7 23.1333 18.8 25.4333 17 27.3C15.2 29.1 12.8667 30 10 30C7.13333 30 4.8 29.1 3 27.3C1.26667 25.5 0.4 23.2 0.4 20.4C0.4 17.9333 1.13333 15.2 2.6 12.2L8.1 0.799997H18.9ZM40.8 0.799997L35.3 11.7C39.5 13.2333 41.6 16.1333 41.6 20.4C41.6 23.1333 40.7 25.4333 38.9 27.3C37.1 29.1 34.7667 30 31.9 30C29.0333 30 26.7 29.1 24.9 27.3C23.1667 25.5 22.3 23.2 22.3 20.4C22.3 17.9333 23.0333 15.2 24.5 12.2L30 0.799997H40.8Z" fill="white"/>
</svg>
