<svg width="742" height="677" viewBox="0 0 742 677" fill="none" xmlns="http://www.w3.org/2000/svg">
<path d="M487.379 195L525.379 128L672.379 387H596.379L487.379 195Z" fill="#E52330"/>
<path d="M151.218 384.464L73.0781 385.122L224.379 129L262.379 195L151.218 384.464Z" fill="#E52330"/>
<path d="M286.379 670L210.379 670L77.3789 435H153.379L286.379 670Z" fill="#E52330"/>
<path d="M442.379 670L366.379 670L233.379 435H309.379L442.379 670Z" fill="#E52330"/>
<path d="M598.878 435.001L672.879 435L538.379 670L523.879 670.5L492.877 614.683L598.878 435.001Z" fill="#E52330"/>
<path d="M262.379 195L224.379 129.002L525.379 128L487.379 195L262.379 195Z" fill="#E52330"/>
</svg>
